<svg width="16" height="8" viewBox="0 0 16 8" fill="white" xmlns="http://www.w3.org/2000/svg">
<path d="M14.9281 4.6341C14.9279 4.63428 14.9277 4.63448 14.9275 4.63465L11.9372 7.61055C11.7132 7.83349 11.3509 7.83266 11.1279 7.60861C10.9049 7.38458 10.9058 7.02224 11.1298 6.79927L13.1375 4.8013L1.0176 4.8013C0.701527 4.8013 0.445313 4.54508 0.445313 4.22901C0.445313 3.91293 0.701527 3.65672 1.0176 3.65672L13.1375 3.65672L11.1298 1.65874C10.9058 1.43578 10.9049 1.07344 11.1279 0.849413C11.3509 0.625333 11.7133 0.624561 11.9373 0.847467L14.9276 3.82337C14.9277 3.82354 14.9279 3.82374 14.9281 3.82391C15.1522 4.04762 15.1515 4.41114 14.9281 4.6341Z" fill="white"/>
</svg>
