<svg width="13" height="12" viewBox="0 0 13 12" fill="none" xmlns="http://www.w3.org/2000/svg">
<path d="M11.5166 0.126837C11.5163 0.126838 11.516 0.126795 11.5158 0.126817L6.90845 0.147189C6.5633 0.14872 6.28468 0.429735 6.28619 0.774956C6.2877 1.12013 6.56874 1.39872 6.91392 1.39721L10.0072 1.3835L0.666604 10.7616C0.423009 11.0062 0.423802 11.4019 0.668375 11.6455C0.912949 11.8891 1.30866 11.8883 1.55226 11.6437L10.8929 2.26563L10.8916 5.35892C10.8915 5.7041 11.1712 5.98402 11.5164 5.98415C11.8616 5.98429 12.1415 5.70449 12.1416 5.35938L12.1435 0.752034C12.1435 0.751769 12.1435 0.751504 12.1435 0.751217C12.1431 0.405375 11.8613 0.125771 11.5166 0.126837Z" fill="white"/>
</svg>
