<svg width="32" height="32" viewBox="0 0 32 32" fill="none" xmlns="http://www.w3.org/2000/svg">
<path d="M16 32C12.8355 32 9.74207 31.0616 7.11088 29.3035C4.4797 27.5454 2.42894 25.0466 1.21793 22.1229C0.00693261 19.1993 -0.309921 15.9823 0.307443 12.8786C0.924806 9.77486 2.44866 6.92394 4.6863 4.6863C6.92394 2.44866 9.77486 0.924806 12.8786 0.307443C15.9823 -0.309921 19.1993 0.00693261 22.1229 1.21793C25.0466 2.42894 27.5454 4.4797 29.3035 7.11088C31.0616 9.74207 32 12.8355 32 16C31.9952 20.242 30.3079 24.3088 27.3084 27.3084C24.3088 30.3079 20.242 31.9952 16 32ZM16 0.914293C13.0163 0.914293 10.0997 1.79905 7.61883 3.45669C5.138 5.11433 3.20443 7.4704 2.06262 10.227C0.920822 12.9835 0.622075 16.0167 1.20416 18.9431C1.78625 21.8694 3.22302 24.5574 5.3328 26.6672C7.44257 28.777 10.1306 30.2138 13.0569 30.7958C15.9833 31.3779 19.0165 31.0792 21.7731 29.9374C24.5296 28.7956 26.8857 26.862 28.5433 24.3812C30.201 21.9003 31.0857 18.9837 31.0857 16C31.0811 12.0004 29.4903 8.166 26.6621 5.33787C23.834 2.50975 19.9996 0.91889 16 0.914293Z" fill="#313131"/>
</svg>
